<?xml version="1.0" standalone="no"?><svg xmlns="http://www.w3.org/2000/svg" viewBox="0 0 1440 320"><path fill="#0099ff" fill-opacity="1" d="M0,32L6.2,32C12.3,32,25,32,37,53.3C49.2,75,62,117,74,154.7C86.2,192,98,224,111,208C123.1,192,135,128,148,96C160,64,172,64,185,85.3C196.9,107,209,149,222,154.7C233.8,160,246,128,258,144C270.8,160,283,224,295,224C307.7,224,320,160,332,138.7C344.6,117,357,139,369,133.3C381.5,128,394,96,406,74.7C418.5,53,431,43,443,42.7C455.4,43,468,53,480,85.3C492.3,117,505,171,517,186.7C529.2,203,542,181,554,154.7C566.2,128,578,96,591,90.7C603.1,85,615,107,628,117.3C640,128,652,128,665,149.3C676.9,171,689,213,702,229.3C713.8,245,726,235,738,229.3C750.8,224,763,224,775,229.3C787.7,235,800,245,812,229.3C824.6,213,837,171,849,160C861.5,149,874,171,886,160C898.5,149,911,107,923,117.3C935.4,128,948,192,960,202.7C972.3,213,985,171,997,176C1009.2,181,1022,235,1034,229.3C1046.2,224,1058,160,1071,112C1083.1,64,1095,32,1108,21.3C1120,11,1132,21,1145,26.7C1156.9,32,1169,32,1182,80C1193.8,128,1206,224,1218,261.3C1230.8,299,1243,277,1255,256C1267.7,235,1280,213,1292,202.7C1304.6,192,1317,192,1329,197.3C1341.5,203,1354,213,1366,218.7C1378.5,224,1391,224,1403,208C1415.4,192,1428,160,1434,144L1440,128L1440,320L1433.8,320C1427.7,320,1415,320,1403,320C1390.8,320,1378,320,1366,320C1353.8,320,1342,320,1329,320C1316.9,320,1305,320,1292,320C1280,320,1268,320,1255,320C1243.1,320,1231,320,1218,320C1206.2,320,1194,320,1182,320C1169.2,320,1157,320,1145,320C1132.3,320,1120,320,1108,320C1095.4,320,1083,320,1071,320C1058.5,320,1046,320,1034,320C1021.5,320,1009,320,997,320C984.6,320,972,320,960,320C947.7,320,935,320,923,320C910.8,320,898,320,886,320C873.8,320,862,320,849,320C836.9,320,825,320,812,320C800,320,788,320,775,320C763.1,320,751,320,738,320C726.2,320,714,320,702,320C689.2,320,677,320,665,320C652.3,320,640,320,628,320C615.4,320,603,320,591,320C578.5,320,566,320,554,320C541.5,320,529,320,517,320C504.6,320,492,320,480,320C467.7,320,455,320,443,320C430.8,320,418,320,406,320C393.8,320,382,320,369,320C356.9,320,345,320,332,320C320,320,308,320,295,320C283.1,320,271,320,258,320C246.2,320,234,320,222,320C209.2,320,197,320,185,320C172.3,320,160,320,148,320C135.4,320,123,320,111,320C98.5,320,86,320,74,320C61.5,320,49,320,37,320C24.6,320,12,320,6,320L0,320Z"></path></svg>